<svg width="18" height="8" viewBox="0 0 18 8" fill="none" xmlns="http://www.w3.org/2000/svg">
<g clip-path="url(#clip0_454_3232)">
<path d="M16.2902 7.06343H1.15319C0.906136 7.06343 0.669203 6.96458 0.494512 6.78862C0.31982 6.61266 0.22168 6.37401 0.22168 6.12516C0.22168 5.87632 0.31982 5.63766 0.494512 5.4617C0.669203 5.28574 0.906136 5.18689 1.15319 5.18689H16.2902C16.5372 5.18689 16.7742 5.28574 16.9488 5.4617C17.1235 5.63766 17.2217 5.87632 17.2217 6.12516C17.2217 6.37401 17.1235 6.61266 16.9488 6.78862C16.7742 6.96458 16.5372 7.06343 16.2902 7.06343Z" fill="#FF7A00"/>
<path d="M16.2902 2.60665H1.15319C0.906136 2.60665 0.669203 2.50779 0.494512 2.33183C0.31982 2.15587 0.22168 1.91722 0.22168 1.66837C0.22168 1.41953 0.31982 1.18088 0.494512 1.00492C0.669203 0.828956 0.906136 0.730103 1.15319 0.730103H16.2902C16.5372 0.730103 16.7742 0.828956 16.9488 1.00492C17.1235 1.18088 17.2217 1.41953 17.2217 1.66837C17.2217 1.91722 17.1235 2.15587 16.9488 2.33183C16.7742 2.50779 16.5372 2.60665 16.2902 2.60665Z" fill="#FF7A00"/>
</g>
<defs>
<clipPath id="clip0_454_3232">
<rect width="17" height="6.33333" fill="white" transform="translate(0.22168 0.730103)"/>
</clipPath>
</defs>
</svg>
