<svg width="18" height="13" viewBox="0 0 18 13" fill="none" xmlns="http://www.w3.org/2000/svg">
<g clip-path="url(#clip0_454_3247)">
<path d="M8.72185 5.65161C8.92128 5.65128 9.11556 5.71318 9.2761 5.82822L16.8446 11.2622C16.9431 11.3329 17.0262 11.4219 17.0894 11.5239C17.1525 11.6259 17.1943 11.739 17.2125 11.8568C17.2492 12.0945 17.1872 12.3367 17.0402 12.5301C16.8932 12.7235 16.6732 12.8521 16.4287 12.8878C16.1841 12.9235 15.935 12.8632 15.7361 12.7203L8.72185 7.68935L1.7076 12.7203C1.60913 12.7911 1.49728 12.8423 1.37845 12.871C1.25962 12.8998 1.13613 12.9055 1.01504 12.8878C0.893936 12.8701 0.777603 12.8295 0.672676 12.7681C0.567747 12.7067 0.476279 12.6258 0.403494 12.5301C0.33071 12.4344 0.278033 12.3256 0.248473 12.2101C0.218913 12.0946 0.213048 11.9745 0.231211 11.8567C0.249377 11.739 0.291215 11.6259 0.35434 11.5239C0.417464 11.4219 0.500638 11.3329 0.599112 11.2622L8.1676 5.82822C8.32814 5.71318 8.52242 5.65128 8.72185 5.65161Z" fill="#FF0000"/>
<path d="M8.72168 0.896729C8.92111 0.896395 9.11539 0.958298 9.27593 1.07333L16.8444 6.5073C17.0433 6.65021 17.1756 6.86409 17.2123 7.10187C17.249 7.33965 17.187 7.58186 17.04 7.77522C16.893 7.96858 16.6731 8.09724 16.4285 8.13291C16.1839 8.16858 15.9348 8.10833 15.7359 7.96541L8.72168 2.93446L1.70744 7.96541C1.50856 8.10832 1.25943 8.16858 1.01487 8.13291C0.770298 8.09724 0.550322 7.96858 0.403326 7.77522C0.256331 7.58186 0.194359 7.33965 0.231043 7.10187C0.267729 6.86409 0.400067 6.65021 0.598944 6.50729L8.16744 1.07333C8.32798 0.958298 8.52225 0.896395 8.72168 0.896729Z" fill="#FF0000"/>
</g>
<defs>
<clipPath id="clip0_454_3247">
<rect width="17" height="12" fill="white" transform="translate(17.2217 12.8967) rotate(-180)"/>
</clipPath>
</defs>
</svg>
