<svg width="18" height="13" viewBox="0 0 18 13" fill="none" xmlns="http://www.w3.org/2000/svg">
<g clip-path="url(#clip0_454_3240)">
<path d="M8.72151 8.14184C8.52208 8.14218 8.3278 8.08027 8.16726 7.96524L0.598769 2.53128C0.500296 2.46051 0.417122 2.37158 0.353998 2.26957C0.290874 2.16755 0.249035 2.05444 0.230871 1.93671C0.194186 1.69892 0.256157 1.45671 0.403153 1.26335C0.550148 1.07 0.770126 0.941331 1.01469 0.905664C1.25926 0.869997 1.50839 0.930249 1.70726 1.07317L8.72151 6.10411L15.7358 1.07317C15.8342 1.0024 15.9461 0.951186 16.0649 0.922446C16.1837 0.893707 16.3072 0.888004 16.4283 0.905665C16.5494 0.923325 16.6658 0.964003 16.7707 1.02538C16.8756 1.08675 16.9671 1.16761 17.0399 1.26335C17.1126 1.3591 17.1653 1.46784 17.1949 1.58337C17.2244 1.69891 17.2303 1.81897 17.2121 1.93671C17.194 2.05444 17.1521 2.16755 17.089 2.26957C17.0259 2.37158 16.9427 2.46051 16.8442 2.53128L9.27576 7.96524C9.11522 8.08027 8.92094 8.14218 8.72151 8.14184Z" fill="#02CF2F"/>
<path d="M8.72168 12.8967C8.52225 12.8971 8.32797 12.8352 8.16743 12.7201L0.598937 7.28616C0.400061 7.14324 0.267724 6.92937 0.231039 6.69159C0.194353 6.45381 0.256325 6.21159 0.40332 6.01824C0.550316 5.82488 0.770294 5.69621 1.01486 5.66055C1.25943 5.62488 1.50855 5.68513 1.70743 5.82805L8.72168 10.859L15.7359 5.82805C15.9348 5.68513 16.1839 5.62488 16.4285 5.66055C16.6731 5.69621 16.893 5.82488 17.04 6.01824C17.187 6.2116 17.249 6.45381 17.2123 6.69159C17.1756 6.92937 17.0433 7.14325 16.8444 7.28616L9.27592 12.7201C9.11538 12.8352 8.92111 12.8971 8.72168 12.8967Z" fill="#02CF2F"/>
</g>
<defs>
<clipPath id="clip0_454_3240">
<rect width="17" height="12" fill="white" transform="translate(0.22168 0.896729)"/>
</clipPath>
</defs>
</svg>
