<svg width="25" height="25" viewBox="0 0 25 25" fill="none" xmlns="http://www.w3.org/2000/svg">
<mask id="mask0_55195_6755" style="mask-type:alpha" maskUnits="userSpaceOnUse" x="0" y="0" width="25" height="25">
<rect x="0.682129" y="0.396729" width="24" height="24" fill="#D9D9D9"/>
</mask>
<g mask="url(#mask0_55195_6755)">
<path d="M10.2321 15.5467L18.7071 7.07173C18.9071 6.87173 19.1446 6.77173 19.4196 6.77173C19.6946 6.77173 19.9321 6.87173 20.1321 7.07173C20.3321 7.27173 20.4321 7.50923 20.4321 7.78423C20.4321 8.05923 20.3321 8.29673 20.1321 8.49673L10.9321 17.6967C10.7321 17.8967 10.4988 17.9967 10.2321 17.9967C9.96546 17.9967 9.73213 17.8967 9.53213 17.6967L5.23213 13.3967C5.03213 13.1967 4.9363 12.9592 4.94463 12.6842C4.95296 12.4092 5.05713 12.1717 5.25713 11.9717C5.45713 11.7717 5.69463 11.6717 5.96963 11.6717C6.24463 11.6717 6.48213 11.7717 6.68213 11.9717L10.2321 15.5467Z" fill="white"/>
</g>
</svg>
