<svg width="19" height="19" viewBox="0 0 19 19" fill="none" xmlns="http://www.w3.org/2000/svg">
<g clip-path="url(#clip0_54889_3290)">
<path d="M19.0001 0.100098V1.7901C19.0017 2.41806 18.8789 3.04012 18.6386 3.62029C18.3983 4.20046 18.0453 4.72722 17.6001 5.1701L5.1701 17.6001C4.72722 18.0453 4.20046 18.3983 3.62029 18.6386C3.04012 18.8789 2.41806 19.0017 1.7901 19.0001H0.100098L19.0001 0.100098Z" fill="#D1D1D1"/>
<path d="M19.0002 6.41016V8.10016C19.0007 8.72796 18.8773 9.3497 18.6371 9.92971C18.3968 10.5097 18.0445 11.0366 17.6002 11.4802L11.4802 17.6002C11.0366 18.0445 10.5097 18.3968 9.92971 18.6371C9.3497 18.8773 8.72796 19.0007 8.10016 19.0002H6.41016L19.0002 6.41016Z" fill="#D1D1D1"/>
<path d="M19.0002 12.5303V14.2203C19.0007 14.8481 18.8773 15.4698 18.6371 16.0498C18.3968 16.6298 18.0445 17.1567 17.6002 17.6003C17.1566 18.0446 16.6297 18.397 16.0497 18.6372C15.4697 18.8774 14.848 19.0008 14.2202 19.0003H12.5302L19.0002 12.5303Z" fill="#D1D1D1"/>
</g>
<defs>
<clipPath id="clip0_54889_3290">
<rect width="18.9" height="18.9" fill="white" transform="translate(0.100098 0.100098)"/>
</clipPath>
</defs>
</svg>
